<?xml version="1.0" encoding="UTF-8" standalone="no"?>
<!-- Created with Inkscape (http://www.inkscape.org/) -->

<svg
   width="100mm"
   height="99.997475mm"
   viewBox="0 0 100 99.997475"
   version="1.1"
   id="svg1"
   inkscape:export-filename="facebook.svg"
   inkscape:export-xdpi="96"
   inkscape:export-ydpi="96"
   xmlns:inkscape="http://www.inkscape.org/namespaces/inkscape"
   xmlns:sodipodi="http://sodipodi.sourceforge.net/DTD/sodipodi-0.dtd"
   xmlns="http://www.w3.org/2000/svg"
   xmlns:svg="http://www.w3.org/2000/svg">
  <sodipodi:namedview
     id="namedview1"
     pagecolor="#ffffff"
     bordercolor="#000000"
     borderopacity="0.25"
     inkscape:showpageshadow="2"
     inkscape:pageopacity="0.0"
     inkscape:pagecheckerboard="0"
     inkscape:deskcolor="#d1d1d1"
     inkscape:document-units="mm" />
  <defs
     id="defs1" />
  <g
     id="XMLID_2023_"
     transform="matrix(2.527742,0,0,2.527742,-1076.6664,-322.93421)">
	<path
   id="XMLID_2079_"
   style="fill:none;stroke:#ffffff;stroke-width:1.5;stroke-miterlimit:10;stroke-opacity:1"
   d="m 445.72,166.566 v 0 c -10.51,0 -19.03,-8.52 -19.03,-19.03 v 0 c 0,-10.51 8.52,-19.03 19.03,-19.03 v 0 c 10.51,0 19.031,8.52 19.031,19.03 v 0 c 0,10.51 -8.521,19.03 -19.031,19.03 z" />

	<g
   id="XMLID_2024_">
		<path
   id="XMLID_2076_"
   style="fill:#ffffff;fill-opacity:1"
   d="m 445.72,138.981 c 2.786,0 3.116,0.011 4.216,0.061 1.017,0.046 1.57,0.216 1.938,0.359 0.487,0.189 0.835,0.415 1.2,0.78 0.365,0.365 0.591,0.713 0.78,1.2 0.143,0.368 0.313,0.92 0.359,1.938 0.05,1.1 0.061,1.43 0.061,4.216 0,2.786 -0.011,3.116 -0.061,4.216 -0.047,1.018 -0.216,1.57 -0.359,1.938 -0.189,0.487 -0.415,0.835 -0.78,1.2 -0.365,0.365 -0.713,0.591 -1.2,0.781 -0.368,0.143 -0.92,0.313 -1.938,0.359 -1.1,0.05 -1.43,0.061 -4.216,0.061 -2.786,0 -3.116,-0.011 -4.216,-0.061 -1.017,-0.046 -1.57,-0.216 -1.937,-0.359 -0.487,-0.189 -0.835,-0.416 -1.2,-0.781 -0.365,-0.365 -0.591,-0.713 -0.78,-1.2 -0.143,-0.368 -0.313,-0.92 -0.359,-1.938 -0.05,-1.1 -0.061,-1.43 -0.061,-4.216 0,-2.786 0.011,-3.116 0.061,-4.216 0.047,-1.018 0.217,-1.57 0.359,-1.938 0.189,-0.487 0.415,-0.834 0.78,-1.2 0.365,-0.365 0.713,-0.591 1.2,-0.78 0.368,-0.143 0.92,-0.313 1.937,-0.359 1.1,-0.05 1.43,-0.061 4.216,-0.061 m 0,-1.88 c -2.834,0 -3.189,0.012 -4.302,0.063 -1.111,0.051 -1.869,0.227 -2.533,0.485 -0.686,0.267 -1.268,0.623 -1.848,1.204 -0.58,0.58 -0.937,1.162 -1.203,1.848 -0.258,0.664 -0.435,1.422 -0.485,2.533 -0.051,1.113 -0.063,1.468 -0.063,4.302 0,2.834 0.012,3.189 0.063,4.302 0.051,1.111 0.227,1.869 0.485,2.533 0.266,0.686 0.623,1.268 1.203,1.848 0.58,0.58 1.162,0.937 1.848,1.204 0.664,0.258 1.422,0.434 2.533,0.485 1.113,0.051 1.468,0.063 4.302,0.063 2.834,0 3.189,-0.012 4.302,-0.063 1.111,-0.051 1.869,-0.227 2.533,-0.485 0.686,-0.267 1.268,-0.624 1.848,-1.204 0.58,-0.58 0.937,-1.162 1.204,-1.848 0.258,-0.664 0.434,-1.422 0.485,-2.533 0.051,-1.113 0.063,-1.468 0.063,-4.302 0,-2.834 -0.012,-3.189 -0.063,-4.302 -0.051,-1.111 -0.227,-1.869 -0.485,-2.533 -0.267,-0.686 -0.624,-1.268 -1.204,-1.848 -0.58,-0.58 -1.162,-0.937 -1.848,-1.204 -0.664,-0.258 -1.422,-0.434 -2.533,-0.485 -1.113,-0.051 -1.468,-0.063 -4.302,-0.063" />

		<path
   id="XMLID_2073_"
   style="fill:#ffffff;fill-opacity:1"
   d="m 445.72,142.178 c -2.959,0 -5.358,2.399 -5.358,5.358 0,2.959 2.399,5.358 5.358,5.358 2.959,0 5.358,-2.399 5.358,-5.358 0,-2.959 -2.398,-5.358 -5.358,-5.358 m 0,8.836 c -1.921,0 -3.478,-1.557 -3.478,-3.478 0,-1.921 1.557,-3.478 3.478,-3.478 1.921,0 3.478,1.557 3.478,3.478 0,1.921 -1.557,3.478 -3.478,3.478" />

		<path
   id="XMLID_2025_"
   style="fill:#ffffff;fill-opacity:1"
   d="m 452.542,141.966 c 0,0.691 -0.561,1.252 -1.252,1.252 -0.692,0 -1.252,-0.561 -1.252,-1.252 0,-0.691 0.561,-1.252 1.252,-1.252 0.692,0 1.252,0.56 1.252,1.252" />

	</g>

</g>
</svg>
