<?xml version="1.0" encoding="UTF-8" standalone="no"?>
<!-- Created with Inkscape (http://www.inkscape.org/) -->

<svg
   width="77.985184mm"
   height="77.985191mm"
   viewBox="0 0 77.985184 77.985191"
   version="1.1"
   id="svg1"
   inkscape:export-filename="linkedin.svg"
   inkscape:export-xdpi="96"
   inkscape:export-ydpi="96"
   xmlns:inkscape="http://www.inkscape.org/namespaces/inkscape"
   xmlns:sodipodi="http://sodipodi.sourceforge.net/DTD/sodipodi-0.dtd"
   xmlns="http://www.w3.org/2000/svg"
   xmlns:svg="http://www.w3.org/2000/svg">
  <sodipodi:namedview
     id="namedview1"
     pagecolor="#ffffff"
     bordercolor="#000000"
     borderopacity="0.25"
     inkscape:showpageshadow="2"
     inkscape:pageopacity="0.0"
     inkscape:pagecheckerboard="0"
     inkscape:deskcolor="#d1d1d1"
     inkscape:document-units="mm" />
  <defs
     id="defs1" />
  <g
     id="XMLID_1981_"
     transform="matrix(1.9713141,0,0,1.9713141,-510.04007,-464.45343)">
	<path
   id="XMLID_1988_"
   style="fill:none;stroke:#ffffff;stroke-width:1.5;stroke-miterlimit:10;stroke-opacity:1"
   d="m 278.511,274.416 v 0 c -10.51,0 -19.03,-8.52 -19.03,-19.03 v 0 c 0,-10.51 8.52,-19.03 19.03,-19.03 v 0 c 10.51,0 19.03,8.52 19.03,19.03 v 0 c 10e-4,10.51 -8.519,19.03 -19.03,19.03 z" />

	<path
   id="XMLID_1987_"
   style="clip-rule:evenodd;fill:#ffffff;fill-opacity:1;fill-rule:evenodd"
   d="M 289.539,260.905 V 260.9 c -0.005,-0.006 -0.01,-0.006 -0.021,-0.016 0,0 0,0 -0.005,0 v 0 c -0.269,-0.171 -0.543,-0.196 -0.714,-0.259 -0.005,0 -0.01,0 -0.01,-0.005 -1.169,-0.367 -2.177,-1.164 -2.932,-2.136 -0.419,-0.543 -0.771,-1.128 -1.003,-1.753 0,-0.005 0,-0.005 0,-0.01 -0.093,-0.269 -0.098,-0.569 0.036,-0.75 0,0 0.005,0 0.005,-0.005 0.212,-0.3 0.6,-0.491 1.008,-0.641 0.005,0 0.005,0 0.005,0 0.46,-0.16 0.956,-0.341 1.365,-0.703 0.005,0 0.005,-0.005 0.01,-0.005 0.062,-0.057 0.139,-0.134 0.196,-0.253 0.01,-0.026 0.026,-0.057 0.031,-0.093 0.031,-0.109 0.031,-0.243 -0.026,-0.357 0,-0.005 0,-0.005 0,-0.005 -0.119,-0.238 -0.321,-0.367 -0.476,-0.455 h -0.005 c -0.253,-0.15 -0.553,-0.16 -0.817,-0.072 v 0 h -0.005 c -0.279,0.083 -0.512,0.186 -0.724,0.212 -0.005,0 -0.01,0 -0.016,0.005 -0.3,0.052 -0.595,0.062 -0.822,-0.021 -0.005,-0.031 -0.005,-0.098 -0.015,-0.181 h 0.005 c -0.021,-0.496 0.026,-1.008 0.031,-1.541 0,0 0,0 0,-0.005 0.026,-0.807 0.057,-1.634 -0.062,-2.472 0,-0.005 0,-0.01 0,-0.01 -0.264,-1.412 -1.169,-2.627 -2.317,-3.434 -0.832,-0.589 -1.825,-0.915 -2.834,-1.008 v 0 c -0.347,-0.031 -0.683,-0.041 -1.019,-0.041 -1.36,0.01 -2.772,0.367 -3.873,1.231 -0.827,0.646 -1.479,1.505 -1.888,2.462 v 0.005 c -0.393,0.982 -0.357,2.032 -0.305,3.004 v 0 c 0.031,0.683 0.109,1.344 0.047,1.975 -0.005,0.021 -0.005,0.031 -0.01,0.042 -0.305,0.057 -0.641,0.036 -0.972,-0.026 h -0.005 c -0.227,-0.036 -0.47,-0.129 -0.745,-0.207 -0.005,0 -0.01,0 -0.016,-0.005 -0.264,-0.057 -0.527,0.016 -0.724,0.166 -0.005,0 -0.01,0 -0.01,0.005 -0.005,0.005 -0.01,0.005 -0.01,0.01 -0.166,0.103 -0.388,0.285 -0.398,0.595 -0.005,0.021 0,0.036 0,0.057 0.005,0 0,0.005 0.005,0.005 0.031,0.181 0.145,0.316 0.248,0.403 0.103,0.088 0.197,0.145 0.253,0.191 0.005,0 0.01,0.005 0.016,0.01 0.496,0.331 1.045,0.476 1.525,0.662 v 0 c 0.331,0.145 0.615,0.367 0.683,0.652 0.083,0.357 -0.072,0.771 -0.269,1.169 v 0.005 c -0.538,1.055 -1.334,1.975 -2.317,2.652 -0.517,0.352 -1.096,0.616 -1.701,0.776 -0.005,0 -0.016,0.005 -0.026,0.01 -0.124,0.047 -0.419,0.073 -0.605,0.352 -0.01,0.021 -0.021,0.041 -0.031,0.067 -0.062,0.176 0.01,0.367 0.098,0.476 0.083,0.098 0.176,0.16 0.258,0.202 0.005,0 0.01,0.005 0.016,0.005 0.507,0.294 1.065,0.419 1.572,0.548 0.005,0 0.005,0.005 0.005,0.005 0.367,0.078 0.708,0.124 0.983,0.243 0.01,0.021 0.041,0.114 0.103,0.269 0.093,0.279 0.134,0.605 0.238,0.952 0.031,0.093 0.114,0.171 0.212,0.191 0.233,0.052 0.357,-0.026 0.378,-0.031 0.01,0 0.021,0 0.031,0 0.848,-0.15 1.701,-0.279 2.482,-0.088 v 0 c 0.817,0.217 1.531,0.781 2.332,1.262 v 0.006 0 c 0.533,0.331 1.148,0.656 1.862,0.682 v 0 c 0,0 0,0 0.005,0 0.538,0.031 1.06,-0.005 1.577,-0.036 0.005,0 0.005,0 0.01,0 0.44,-0.041 0.864,-0.192 1.241,-0.424 0.005,-0.005 0.011,-0.01 0.016,-0.01 0.843,-0.481 1.588,-1.055 2.41,-1.417 h 0.005 c 0.264,-0.093 0.6,-0.088 0.967,-0.113 0.005,0 0.01,0 0.01,0 0.683,-0.021 1.36,0.015 2.037,0.103 0.021,0.005 0.047,0.005 0.067,0 0.093,-0.01 0.186,-0.072 0.233,-0.129 0.052,-0.057 0.062,-0.109 0.072,-0.145 0.021,-0.067 0.036,-0.098 0.005,-0.041 0.01,-0.021 0.021,-0.036 0.026,-0.057 0.124,-0.408 0.191,-0.776 0.393,-1.003 0.088,-0.088 0.243,-0.13 0.419,-0.13 0.01,0 0.026,0 0.036,0 0.589,-0.067 1.117,-0.279 1.619,-0.455 0.005,-0.005 0.016,-0.005 0.021,-0.005 0.186,-0.083 0.465,-0.176 0.657,-0.44 0,0 0,0 0,-0.005 v 0 c 0.163,-0.224 0.086,-0.529 -0.137,-0.664 z" />

</g>
</svg>
